G04 EAGLE Gerber RS-274X export*
G75*
%MOMM*%
%FSLAX34Y34*%
%LPD*%
%IN*%
%IPPOS*%
%AMOC8*
5,1,8,0,0,1.08239X$1,22.5*%
G01*
%ADD10C,0.254000*%


D10*
X101600Y0D02*
X631700Y0D01*
X631700Y507900D01*
X101600Y507900D01*
X101600Y0D01*
X167400Y456664D02*
X167324Y455596D01*
X167171Y454535D01*
X166943Y453488D01*
X166641Y452460D01*
X166267Y451456D01*
X165822Y450481D01*
X165308Y449541D01*
X164729Y448640D01*
X164087Y447782D01*
X163385Y446972D01*
X162628Y446215D01*
X161818Y445513D01*
X160960Y444871D01*
X160059Y444292D01*
X159119Y443778D01*
X158144Y443333D01*
X157140Y442959D01*
X156112Y442657D01*
X155065Y442429D01*
X154004Y442276D01*
X152936Y442200D01*
X151864Y442200D01*
X150796Y442276D01*
X149735Y442429D01*
X148688Y442657D01*
X147660Y442959D01*
X146656Y443333D01*
X145681Y443778D01*
X144741Y444292D01*
X143840Y444871D01*
X142982Y445513D01*
X142172Y446215D01*
X141415Y446972D01*
X140713Y447782D01*
X140071Y448640D01*
X139492Y449541D01*
X138978Y450481D01*
X138533Y451456D01*
X138159Y452460D01*
X137857Y453488D01*
X137629Y454535D01*
X137476Y455596D01*
X137400Y456664D01*
X137400Y457736D01*
X137476Y458804D01*
X137629Y459865D01*
X137857Y460912D01*
X138159Y461940D01*
X138533Y462944D01*
X138978Y463919D01*
X139492Y464859D01*
X140071Y465760D01*
X140713Y466618D01*
X141415Y467428D01*
X142172Y468185D01*
X142982Y468887D01*
X143840Y469529D01*
X144741Y470108D01*
X145681Y470622D01*
X146656Y471067D01*
X147660Y471441D01*
X148688Y471743D01*
X149735Y471971D01*
X150796Y472124D01*
X151864Y472200D01*
X152936Y472200D01*
X154004Y472124D01*
X155065Y471971D01*
X156112Y471743D01*
X157140Y471441D01*
X158144Y471067D01*
X159119Y470622D01*
X160059Y470108D01*
X160960Y469529D01*
X161818Y468887D01*
X162628Y468185D01*
X163385Y467428D01*
X164087Y466618D01*
X164729Y465760D01*
X165308Y464859D01*
X165822Y463919D01*
X166267Y462944D01*
X166641Y461940D01*
X166943Y460912D01*
X167171Y459865D01*
X167324Y458804D01*
X167400Y457736D01*
X167400Y456664D01*
X599200Y456664D02*
X599124Y455596D01*
X598971Y454535D01*
X598743Y453488D01*
X598441Y452460D01*
X598067Y451456D01*
X597622Y450481D01*
X597108Y449541D01*
X596529Y448640D01*
X595887Y447782D01*
X595185Y446972D01*
X594428Y446215D01*
X593618Y445513D01*
X592760Y444871D01*
X591859Y444292D01*
X590919Y443778D01*
X589944Y443333D01*
X588940Y442959D01*
X587912Y442657D01*
X586865Y442429D01*
X585804Y442276D01*
X584736Y442200D01*
X583664Y442200D01*
X582596Y442276D01*
X581535Y442429D01*
X580488Y442657D01*
X579460Y442959D01*
X578456Y443333D01*
X577481Y443778D01*
X576541Y444292D01*
X575640Y444871D01*
X574782Y445513D01*
X573972Y446215D01*
X573215Y446972D01*
X572513Y447782D01*
X571871Y448640D01*
X571292Y449541D01*
X570778Y450481D01*
X570333Y451456D01*
X569959Y452460D01*
X569657Y453488D01*
X569429Y454535D01*
X569276Y455596D01*
X569200Y456664D01*
X569200Y457736D01*
X569276Y458804D01*
X569429Y459865D01*
X569657Y460912D01*
X569959Y461940D01*
X570333Y462944D01*
X570778Y463919D01*
X571292Y464859D01*
X571871Y465760D01*
X572513Y466618D01*
X573215Y467428D01*
X573972Y468185D01*
X574782Y468887D01*
X575640Y469529D01*
X576541Y470108D01*
X577481Y470622D01*
X578456Y471067D01*
X579460Y471441D01*
X580488Y471743D01*
X581535Y471971D01*
X582596Y472124D01*
X583664Y472200D01*
X584736Y472200D01*
X585804Y472124D01*
X586865Y471971D01*
X587912Y471743D01*
X588940Y471441D01*
X589944Y471067D01*
X590919Y470622D01*
X591859Y470108D01*
X592760Y469529D01*
X593618Y468887D01*
X594428Y468185D01*
X595185Y467428D01*
X595887Y466618D01*
X596529Y465760D01*
X597108Y464859D01*
X597622Y463919D01*
X598067Y462944D01*
X598441Y461940D01*
X598743Y460912D01*
X598971Y459865D01*
X599124Y458804D01*
X599200Y457736D01*
X599200Y456664D01*
M02*
