G04 EAGLE Gerber RS-274X export*
G75*
%MOMM*%
%FSLAX34Y34*%
%LPD*%
%INTop Copper*%
%IPPOS*%
%AMOC8*
5,1,8,0,0,1.08239X$1,22.5*%
G01*
%ADD10C,4.800000*%
%ADD11R,1.500000X1.300000*%
%ADD12R,1.300000X1.500000*%
%ADD13R,1.400000X1.800000*%
%ADD14C,1.524000*%
%ADD15R,5.400000X6.200000*%
%ADD16R,1.000000X1.600000*%
%ADD17C,1.625600*%
%ADD18R,1.200000X1.200000*%
%ADD19C,1.524000*%
%ADD20C,3.302000*%
%ADD21R,1.470000X0.550000*%
%ADD22R,0.550000X1.470000*%
%ADD23R,1.879600X1.879600*%
%ADD24P,3.247170X8X22.500000*%
%ADD25R,1.930400X5.334000*%
%ADD26C,1.000000*%
%ADD27C,0.203200*%
%ADD28C,0.685800*%
%ADD29C,0.609600*%
%ADD30C,0.975000*%


D10*
X436600Y381600D03*
X483600Y351600D03*
X483600Y410600D03*
D11*
X254000Y219100D03*
X254000Y238100D03*
X304800Y193700D03*
X304800Y212700D03*
X304800Y161900D03*
X304800Y142900D03*
D12*
X346100Y330200D03*
X365100Y330200D03*
X288900Y317500D03*
X269900Y317500D03*
D13*
X389400Y330200D03*
X423400Y330200D03*
D14*
X589280Y279400D02*
X604520Y279400D01*
X604520Y254000D02*
X589280Y254000D01*
X589280Y228600D02*
X604520Y228600D01*
X604520Y203200D02*
X589280Y203200D01*
D15*
X584200Y375520D03*
D16*
X561400Y302520D03*
X607000Y302520D03*
D17*
X139700Y254000D03*
X165100Y254000D03*
X165100Y279400D03*
X139700Y279400D03*
X139700Y228600D03*
X165100Y228600D03*
D14*
X190500Y40640D02*
X190500Y25400D01*
X215900Y25400D02*
X215900Y40640D01*
X241300Y40640D02*
X241300Y25400D01*
X266700Y25400D02*
X266700Y40640D01*
X292100Y40640D02*
X292100Y25400D01*
X317500Y25400D02*
X317500Y40640D01*
X342900Y40640D02*
X342900Y25400D01*
X368300Y25400D02*
X368300Y40640D01*
X393700Y40640D02*
X393700Y25400D01*
X419100Y25400D02*
X419100Y40640D01*
X444500Y40640D02*
X444500Y25400D01*
X469900Y25400D02*
X469900Y40640D01*
X495300Y40640D02*
X495300Y25400D01*
X520700Y25400D02*
X520700Y40640D01*
X546100Y40640D02*
X546100Y25400D01*
X571500Y25400D02*
X571500Y40640D01*
D18*
X522900Y104140D03*
X543900Y104140D03*
D11*
X259080Y288900D03*
X259080Y269900D03*
X165100Y352400D03*
X165100Y333400D03*
X210820Y310540D03*
X210820Y329540D03*
D12*
X558140Y76200D03*
X539140Y76200D03*
D19*
X292100Y344170D03*
X317500Y488950D03*
D20*
X358140Y419100D03*
X226060Y419100D03*
D19*
X266700Y488950D03*
X317500Y344170D03*
X266700Y344170D03*
D14*
X589280Y101600D02*
X604520Y101600D01*
X604520Y127000D02*
X589280Y127000D01*
X589280Y152400D02*
X604520Y152400D01*
D21*
X402800Y256600D03*
X402800Y248600D03*
X402800Y240600D03*
X402800Y232600D03*
X402800Y224600D03*
X402800Y216600D03*
X402800Y208600D03*
X402800Y200600D03*
D22*
X416500Y186900D03*
X424500Y186900D03*
X432500Y186900D03*
X440500Y186900D03*
X448500Y186900D03*
X456500Y186900D03*
X464500Y186900D03*
X472500Y186900D03*
D21*
X486200Y200600D03*
X486200Y208600D03*
X486200Y216600D03*
X486200Y224600D03*
X486200Y232600D03*
X486200Y240600D03*
X486200Y248600D03*
X486200Y256600D03*
D22*
X472500Y270300D03*
X464500Y270300D03*
X456500Y270300D03*
X448500Y270300D03*
X440500Y270300D03*
X432500Y270300D03*
X424500Y270300D03*
X416500Y270300D03*
D23*
X247800Y114700D03*
X247800Y139700D03*
X247800Y164700D03*
D24*
X177800Y95700D03*
X177800Y183700D03*
D25*
X355600Y154940D03*
X355600Y251460D03*
D26*
X132080Y396240D03*
X609600Y35560D03*
D27*
X486200Y168700D02*
X486200Y200600D01*
X486200Y168700D02*
X457200Y139700D01*
D28*
X457200Y139700D03*
X203200Y215900D03*
D27*
X203200Y241300D01*
X190500Y254000D01*
X165100Y254000D01*
X486200Y232600D02*
X501840Y232600D01*
X502920Y233680D01*
D28*
X502920Y233680D03*
D27*
X402800Y224600D02*
X401720Y223520D01*
X375920Y223520D01*
D28*
X375920Y223520D03*
D27*
X304800Y193700D02*
X304800Y161900D01*
X304800Y193700D02*
X288900Y193700D01*
X284480Y198120D01*
D28*
X284480Y198120D03*
D14*
X483600Y410600D02*
X518680Y375520D01*
X584200Y375520D01*
D27*
X596900Y203200D02*
X596900Y152400D01*
X288900Y317500D02*
X288900Y340970D01*
X292100Y344170D01*
X325120Y330200D02*
X346100Y330200D01*
X325120Y330200D02*
X312420Y317500D01*
X288900Y317500D01*
X345440Y329540D02*
X346100Y330200D01*
X345440Y329540D02*
X345440Y314960D01*
D28*
X345440Y314960D03*
D27*
X522900Y104140D02*
X522900Y86020D01*
X518160Y81280D01*
D28*
X518160Y81280D03*
D27*
X464500Y172400D02*
X464500Y186900D01*
X464500Y172400D02*
X444500Y152400D01*
D28*
X444500Y152400D03*
D27*
X472500Y167700D02*
X472500Y186900D01*
X472500Y167700D02*
X444500Y139700D01*
D28*
X444500Y139700D03*
D27*
X266700Y139700D02*
X247800Y139700D01*
X266700Y139700D02*
X279400Y127000D01*
X279400Y101600D02*
X241300Y63500D01*
X241300Y33020D01*
X279400Y101600D02*
X279400Y127000D01*
D28*
X448500Y210141D03*
D27*
X448500Y186900D01*
X319380Y212700D02*
X304800Y212700D01*
X319380Y212700D02*
X330200Y223520D01*
X330200Y241300D01*
X340360Y251460D01*
X355600Y251460D01*
X355600Y215900D01*
X362900Y208600D01*
X402800Y208600D01*
X402800Y200600D02*
X365700Y200600D01*
X355600Y190500D01*
X320700Y142900D02*
X304800Y142900D01*
X332740Y154940D02*
X355600Y154940D01*
X332740Y154940D02*
X320700Y142900D01*
X355600Y154940D02*
X355600Y190500D01*
D28*
X419100Y215900D03*
D27*
X440500Y194500D01*
X440500Y186900D01*
X266700Y344170D02*
X258470Y352400D01*
X165100Y352400D01*
X456500Y186900D02*
X456500Y177100D01*
X444500Y165100D01*
D28*
X444500Y165100D03*
D27*
X210820Y284480D02*
X210820Y310540D01*
X210820Y284480D02*
X228600Y266700D01*
D28*
X228600Y266700D03*
D27*
X444500Y88900D02*
X444500Y33020D01*
X444500Y88900D02*
X406400Y127000D01*
X406400Y177800D01*
D28*
X406400Y177800D03*
X386080Y246380D03*
D27*
X388300Y248600D01*
X402800Y248600D01*
X469900Y76200D02*
X469900Y33020D01*
X416500Y129600D02*
X416500Y186900D01*
X416500Y129600D02*
X469900Y76200D01*
X495300Y63500D02*
X495300Y33020D01*
X424500Y134300D02*
X424500Y186900D01*
X424500Y134300D02*
X495300Y63500D01*
X520700Y50800D02*
X520700Y33020D01*
X520700Y50800D02*
X431800Y139700D01*
X431800Y186200D01*
X432500Y186900D01*
X456500Y278700D02*
X469900Y292100D01*
X456500Y278700D02*
X456500Y270300D01*
X469900Y292100D02*
X502920Y292100D01*
X541020Y254000D01*
X596900Y254000D01*
D28*
X574040Y266700D03*
D27*
X548640Y266700D01*
X510540Y304800D01*
X469900Y304800D01*
X448500Y283400D01*
X448500Y270300D01*
X477200Y248600D02*
X486200Y248600D01*
X477200Y248600D02*
X469900Y241300D01*
D28*
X469900Y241300D03*
X495300Y152400D03*
D27*
X469900Y127000D01*
D28*
X469900Y127000D03*
D27*
X459800Y256600D02*
X486200Y256600D01*
X459800Y256600D02*
X457200Y254000D01*
D28*
X457200Y254000D03*
X393700Y190500D03*
D27*
X393700Y101600D01*
X381000Y88900D01*
X292100Y63500D02*
X292100Y33020D01*
X317500Y88900D02*
X381000Y88900D01*
X317500Y88900D02*
X292100Y63500D01*
D28*
X495300Y101600D03*
D27*
X533400Y139700D01*
X533400Y190500D01*
D28*
X533400Y190500D03*
D27*
X533400Y241300D02*
X504400Y270300D01*
D28*
X533400Y241300D03*
D27*
X504400Y270300D02*
X472500Y270300D01*
X464500Y208600D02*
X486200Y208600D01*
X440500Y232600D02*
X402800Y232600D01*
X440500Y232600D02*
X464500Y208600D01*
X189840Y333400D02*
X165100Y333400D01*
X193700Y329540D02*
X210820Y329540D01*
X193700Y329540D02*
X189840Y333400D01*
X165100Y333400D02*
X165100Y279400D01*
X215900Y104140D02*
X215900Y33020D01*
X226460Y114700D02*
X247800Y114700D01*
X226460Y114700D02*
X215900Y104140D01*
X382080Y232600D02*
X402800Y232600D01*
X382080Y232600D02*
X375920Y238760D01*
X375920Y284480D01*
X370840Y289560D01*
X345440Y289560D01*
X335280Y279400D01*
X304800Y279400D01*
D28*
X304800Y279400D03*
D27*
X228600Y329540D02*
X210820Y329540D01*
D28*
X228600Y329540D03*
D29*
X607000Y302520D02*
X607000Y281880D01*
X604520Y279400D01*
X596900Y279400D01*
D27*
X546100Y53340D02*
X546100Y33020D01*
X558140Y65380D02*
X558140Y76200D01*
X558140Y65380D02*
X546100Y53340D01*
X558140Y76200D02*
X558140Y106020D01*
X568960Y116840D02*
X568960Y127000D01*
X568960Y116840D02*
X558140Y106020D01*
X242620Y329540D02*
X228600Y329540D01*
X242620Y329540D02*
X254660Y317500D01*
X269900Y317500D01*
X259080Y296520D02*
X259080Y288900D01*
X269900Y307340D02*
X269900Y317500D01*
X269900Y307340D02*
X259080Y296520D01*
D30*
X553720Y213360D03*
D29*
X553720Y203200D01*
X553720Y132080D01*
D27*
X512760Y208600D02*
X486200Y208600D01*
X512760Y208600D02*
X518160Y203200D01*
X553720Y203200D01*
D29*
X568960Y127000D02*
X596900Y127000D01*
X558800Y127000D02*
X553720Y132080D01*
X558800Y127000D02*
X568960Y127000D01*
D27*
X440500Y270300D02*
X440500Y283400D01*
X419100Y304800D02*
X330200Y304800D01*
X419100Y304800D02*
X440500Y283400D01*
X254000Y248920D02*
X254000Y238100D01*
X254000Y248920D02*
X259080Y254000D01*
X259080Y269900D01*
X274980Y269900D01*
X309880Y304800D02*
X330200Y304800D01*
X309880Y304800D02*
X274980Y269900D01*
D28*
X228600Y203200D03*
D27*
X244500Y219100D02*
X254000Y219100D01*
X244500Y219100D02*
X228600Y203200D01*
X365100Y330200D02*
X389400Y330200D01*
X462200Y330200D02*
X483600Y351600D01*
X462200Y330200D02*
X423400Y330200D01*
X389400Y330200D01*
D14*
X483600Y351600D02*
X496760Y351600D01*
X545840Y302520D02*
X561400Y302520D01*
X545840Y302520D02*
X496760Y351600D01*
D27*
X464500Y280953D02*
X464500Y270300D01*
X468027Y284480D02*
X487680Y284480D01*
X468027Y284480D02*
X464500Y280953D01*
D28*
X487680Y284480D03*
D27*
X543900Y91120D02*
X539140Y86360D01*
X539140Y76200D01*
X543900Y91120D02*
X543900Y104140D01*
M02*
