G04 EAGLE Gerber RS-274X export*
G75*
%MOMM*%
%FSLAX34Y34*%
%LPD*%
%INSolderpaste Top*%
%IPPOS*%
%AMOC8*
5,1,8,0,0,1.08239X$1,22.5*%
G01*
%ADD10R,1.500000X1.300000*%
%ADD11R,1.300000X1.500000*%
%ADD12R,1.400000X1.800000*%
%ADD13R,5.400000X6.200000*%
%ADD14R,1.000000X1.600000*%
%ADD15R,1.200000X1.200000*%
%ADD16R,1.470000X0.550000*%
%ADD17R,0.550000X1.470000*%
%ADD18R,1.930400X5.334000*%


D10*
X254000Y219100D03*
X254000Y238100D03*
X304800Y193700D03*
X304800Y212700D03*
X304800Y161900D03*
X304800Y142900D03*
D11*
X346100Y330200D03*
X365100Y330200D03*
X288900Y317500D03*
X269900Y317500D03*
D12*
X389400Y330200D03*
X423400Y330200D03*
D13*
X584200Y375520D03*
D14*
X561400Y302520D03*
X607000Y302520D03*
D15*
X522900Y104140D03*
X543900Y104140D03*
D10*
X259080Y288900D03*
X259080Y269900D03*
X165100Y352400D03*
X165100Y333400D03*
X210820Y310540D03*
X210820Y329540D03*
D11*
X558140Y76200D03*
X539140Y76200D03*
D16*
X402800Y256600D03*
X402800Y248600D03*
X402800Y240600D03*
X402800Y232600D03*
X402800Y224600D03*
X402800Y216600D03*
X402800Y208600D03*
X402800Y200600D03*
D17*
X416500Y186900D03*
X424500Y186900D03*
X432500Y186900D03*
X440500Y186900D03*
X448500Y186900D03*
X456500Y186900D03*
X464500Y186900D03*
X472500Y186900D03*
D16*
X486200Y200600D03*
X486200Y208600D03*
X486200Y216600D03*
X486200Y224600D03*
X486200Y232600D03*
X486200Y240600D03*
X486200Y248600D03*
X486200Y256600D03*
D17*
X472500Y270300D03*
X464500Y270300D03*
X456500Y270300D03*
X448500Y270300D03*
X440500Y270300D03*
X432500Y270300D03*
X424500Y270300D03*
X416500Y270300D03*
D18*
X355600Y154940D03*
X355600Y251460D03*
M02*
