G04 EAGLE Gerber RS-274X export*
G75*
%MOMM*%
%FSLAX34Y34*%
%LPD*%
%INSoldermask Bottom*%
%IPPOS*%
%AMOC8*
5,1,8,0,0,1.08239X$1,22.5*%
G01*
%ADD10C,4.901600*%
%ADD11C,1.625600*%
%ADD12C,1.727200*%
%ADD13C,1.625600*%
%ADD14C,3.403600*%
%ADD15R,1.981200X1.981200*%
%ADD16P,3.357141X8X22.500000*%
%ADD17C,3.101600*%
%ADD18C,1.076600*%


D10*
X436600Y381600D03*
X483600Y351600D03*
X483600Y410600D03*
D11*
X589280Y279400D02*
X604520Y279400D01*
X604520Y254000D02*
X589280Y254000D01*
X589280Y228600D02*
X604520Y228600D01*
X604520Y203200D02*
X589280Y203200D01*
D12*
X139700Y254000D03*
X165100Y254000D03*
X165100Y279400D03*
X139700Y279400D03*
X139700Y228600D03*
X165100Y228600D03*
D11*
X190500Y40640D02*
X190500Y25400D01*
X215900Y25400D02*
X215900Y40640D01*
X241300Y40640D02*
X241300Y25400D01*
X266700Y25400D02*
X266700Y40640D01*
X292100Y40640D02*
X292100Y25400D01*
X317500Y25400D02*
X317500Y40640D01*
X342900Y40640D02*
X342900Y25400D01*
X368300Y25400D02*
X368300Y40640D01*
X393700Y40640D02*
X393700Y25400D01*
X419100Y25400D02*
X419100Y40640D01*
X444500Y40640D02*
X444500Y25400D01*
X469900Y25400D02*
X469900Y40640D01*
X495300Y40640D02*
X495300Y25400D01*
X520700Y25400D02*
X520700Y40640D01*
X546100Y40640D02*
X546100Y25400D01*
X571500Y25400D02*
X571500Y40640D01*
D13*
X292100Y344170D03*
X317500Y488950D03*
D14*
X358140Y419100D03*
X226060Y419100D03*
D13*
X266700Y488950D03*
X317500Y344170D03*
X266700Y344170D03*
D11*
X589280Y101600D02*
X604520Y101600D01*
X604520Y127000D02*
X589280Y127000D01*
X589280Y152400D02*
X604520Y152400D01*
D15*
X247800Y114700D03*
X247800Y139700D03*
X247800Y164700D03*
D16*
X177800Y95700D03*
X177800Y183700D03*
D17*
X152400Y457200D03*
X584200Y457200D03*
D18*
X553720Y213360D03*
M02*
