M48
;GenerationSoftware,Autodesk,EAGLE,9.5.1*%
;CreationDate,2019-11-15T15:47:00Z*%
FMAT,2
ICI,OFF
METRIC,TZ,000.000
T8C0.381
T7C0.650
T6C0.900
T5C1.000
T4C1.016
T3C2.000
T2C2.286
T1C3.000
%
G90
M71
T1
X48360Y41060
X15240Y45720
X58420Y45720
X43660Y38160
X48360Y35160
T2
X22606Y41910
X35814Y41910
T3
X17780Y18370
X17780Y9570
T4
X49530Y3302
X19050Y3302
X21590Y3302
X26670Y3302
X29210Y3302
X31750Y3302
X34290Y3302
X36830Y3302
X39370Y3302
X24130Y3302
X41910Y3302
X44450Y3302
X46990Y3302
X52070Y3302
X54610Y3302
X57150Y3302
X29210Y34417
X31750Y48895
X26670Y48895
X26670Y34417
X59690Y10160
X59690Y12700
X59690Y15240
X31750Y34417
X59690Y20320
X59690Y27940
X59690Y25400
X59690Y22860
T5
X24780Y11470
X24780Y13970
X24780Y16470
T6
X13970Y25400
X16510Y25400
X16510Y27940
X13970Y27940
X13970Y22860
X16510Y22860
T7
X55372Y21336
T8
X44450Y16510
X22860Y26670
X40640Y17780
X38608Y24638
X57404Y26670
X46990Y24130
X49530Y15240
X46990Y12700
X45720Y25400
X45720Y13970
X49530Y10160
X53340Y19050
X53340Y24130
X20320Y21590
X48768Y28448
X50292Y23368
X22860Y32954
X37592Y22352
X44850Y21014
X28448Y19812
X22860Y20320
X34544Y31496
X51816Y8128
X44450Y15240
X44450Y13970
X41910Y21590
X30480Y27940
X39370Y19050
M30