G04 EAGLE Gerber RS-274X export*
G75*
%MOMM*%
%FSLAX34Y34*%
%LPD*%
%INSoldermask Bottom*%
%IPPOS*%
%AMOC8*
5,1,8,0,0,1.08239X$1,22.5*%
G01*
%ADD10C,4.901600*%
%ADD11C,1.625600*%
%ADD12C,1.778000*%
%ADD13C,3.403600*%
%ADD14C,1.727200*%
%ADD15C,1.625600*%
%ADD16R,1.981200X1.981200*%
%ADD17P,3.357141X8X22.500000*%
%ADD18C,3.101600*%


D10*
X436600Y381600D03*
X483600Y351600D03*
X483600Y410600D03*
D11*
X563880Y203200D02*
X579120Y203200D01*
X579120Y228600D02*
X563880Y228600D01*
X563880Y254000D02*
X579120Y254000D01*
X579120Y279400D02*
X563880Y279400D01*
D12*
X575818Y381000D02*
X592582Y381000D01*
X592582Y355600D02*
X575818Y355600D01*
X575818Y330200D02*
X592582Y330200D01*
D13*
X734060Y355600D03*
D14*
X139700Y254000D03*
X165100Y254000D03*
X165100Y279400D03*
X139700Y279400D03*
X139700Y228600D03*
X165100Y228600D03*
D11*
X190500Y45720D02*
X190500Y30480D01*
X215900Y30480D02*
X215900Y45720D01*
X241300Y45720D02*
X241300Y30480D01*
X266700Y30480D02*
X266700Y45720D01*
X292100Y45720D02*
X292100Y30480D01*
X317500Y30480D02*
X317500Y45720D01*
X342900Y45720D02*
X342900Y30480D01*
X368300Y30480D02*
X368300Y45720D01*
X393700Y45720D02*
X393700Y30480D01*
X419100Y30480D02*
X419100Y45720D01*
X444500Y45720D02*
X444500Y30480D01*
X469900Y30480D02*
X469900Y45720D01*
X495300Y45720D02*
X495300Y30480D01*
X520700Y30480D02*
X520700Y45720D01*
X546100Y45720D02*
X546100Y30480D01*
X571500Y30480D02*
X571500Y45720D01*
D15*
X292100Y344170D03*
X317500Y488950D03*
D13*
X358140Y419100D03*
X226060Y419100D03*
D15*
X266700Y488950D03*
X317500Y344170D03*
X266700Y344170D03*
D11*
X563880Y101600D02*
X579120Y101600D01*
X579120Y127000D02*
X563880Y127000D01*
X563880Y152400D02*
X579120Y152400D01*
D16*
X247800Y114700D03*
X247800Y139700D03*
X247800Y164700D03*
D17*
X177800Y95700D03*
X177800Y183700D03*
D18*
X152400Y457200D03*
X584200Y457200D03*
M02*
