M48
;GenerationSoftware,Autodesk,EAGLE,9.5.1*%
;CreationDate,2019-11-12T02:38:53Z*%
FMAT,2
ICI,OFF
METRIC,TZ,000.000
T9C0.381
T8C0.900
T7C1.000
T6C1.016
T5C1.118
T4C2.000
T3C2.286
T2C3.000
T1C3.302
%
G90
M71
T1
X73406Y35560
T2
X48360Y41060
X15240Y45720
X58420Y45720
X43660Y38160
X48360Y35160
T3
X22606Y41910
X35814Y41910
T4
X17780Y18370
X17780Y9570
T5
X58420Y38100
X58420Y35560
X58420Y33020
T6
X34290Y3810
X36830Y3810
X39370Y3810
X41910Y3810
X44450Y3810
X46990Y3810
X49530Y3810
X52070Y3810
X26670Y3810
X57150Y3810
X29210Y34417
X31750Y48895
X26670Y48895
X31750Y34417
X57150Y10160
X57150Y12700
X57150Y15240
X26670Y34417
X57150Y20320
X57150Y22860
X57150Y25400
X57150Y27940
X54610Y3810
X19050Y3810
X21590Y3810
X24130Y3810
X29210Y3810
X31750Y3810
T7
X24780Y11470
X24780Y13970
X24780Y16470
T8
X13970Y22860
X16510Y25400
X13970Y25400
X16510Y22860
X16510Y27940
X13970Y27940
T9
X45720Y13970
X20320Y21590
X44450Y15240
X44450Y13970
X44850Y21014
X41910Y21590
X44450Y16510
X22860Y29210
X38608Y24638
X52070Y27940
X53340Y29210
X46990Y24130
X49530Y15240
X46990Y12700
X45720Y25400
X39370Y19050
X49530Y10160
X22860Y20320
X49530Y27940
X40640Y17780
X53340Y19050
M30