G04 EAGLE Gerber RS-274X export*
G75*
%MOMM*%
%FSLAX34Y34*%
%LPD*%
%INTop Copper*%
%IPPOS*%
%AMOC8*
5,1,8,0,0,1.08239X$1,22.5*%
G01*
%ADD10C,4.800000*%
%ADD11R,1.500000X1.300000*%
%ADD12R,1.300000X1.500000*%
%ADD13R,1.400000X1.800000*%
%ADD14C,1.524000*%
%ADD15C,1.676400*%
%ADD16C,1.625600*%
%ADD17R,1.200000X1.200000*%
%ADD18C,1.524000*%
%ADD19C,3.302000*%
%ADD20R,1.470000X0.550000*%
%ADD21R,0.550000X1.470000*%
%ADD22R,1.879600X1.879600*%
%ADD23P,3.247170X8X22.500000*%
%ADD24R,1.930400X5.334000*%
%ADD25C,0.203200*%
%ADD26C,0.685800*%


D10*
X436600Y381600D03*
X483600Y351600D03*
X483600Y410600D03*
D11*
X254000Y219100D03*
X254000Y238100D03*
X304800Y193700D03*
X304800Y212700D03*
X304800Y161900D03*
X304800Y142900D03*
D12*
X346100Y330200D03*
X365100Y330200D03*
X288900Y317500D03*
X269900Y317500D03*
D13*
X389400Y330200D03*
X423400Y330200D03*
D14*
X563880Y203200D02*
X579120Y203200D01*
X579120Y228600D02*
X563880Y228600D01*
X563880Y254000D02*
X579120Y254000D01*
X579120Y279400D02*
X563880Y279400D01*
D15*
X575818Y381000D02*
X592582Y381000D01*
X592582Y355600D02*
X575818Y355600D01*
X575818Y330200D02*
X592582Y330200D01*
D16*
X139700Y254000D03*
X165100Y254000D03*
X165100Y279400D03*
X139700Y279400D03*
X139700Y228600D03*
X165100Y228600D03*
D14*
X190500Y45720D02*
X190500Y30480D01*
X215900Y30480D02*
X215900Y45720D01*
X241300Y45720D02*
X241300Y30480D01*
X266700Y30480D02*
X266700Y45720D01*
X292100Y45720D02*
X292100Y30480D01*
X317500Y30480D02*
X317500Y45720D01*
X342900Y45720D02*
X342900Y30480D01*
X368300Y30480D02*
X368300Y45720D01*
X393700Y45720D02*
X393700Y30480D01*
X419100Y30480D02*
X419100Y45720D01*
X444500Y45720D02*
X444500Y30480D01*
X469900Y30480D02*
X469900Y45720D01*
X495300Y45720D02*
X495300Y30480D01*
X520700Y30480D02*
X520700Y45720D01*
X546100Y45720D02*
X546100Y30480D01*
X571500Y30480D02*
X571500Y45720D01*
D17*
X522900Y104140D03*
X543900Y104140D03*
D11*
X254000Y269900D03*
X254000Y288900D03*
X165100Y352400D03*
X165100Y333400D03*
D12*
X238100Y317500D03*
X219100Y317500D03*
X523900Y76200D03*
X542900Y76200D03*
D18*
X292100Y344170D03*
X317500Y488950D03*
D19*
X358140Y419100D03*
X226060Y419100D03*
D18*
X266700Y488950D03*
X317500Y344170D03*
X266700Y344170D03*
D14*
X563880Y101600D02*
X579120Y101600D01*
X579120Y127000D02*
X563880Y127000D01*
X563880Y152400D02*
X579120Y152400D01*
D20*
X402800Y256600D03*
X402800Y248600D03*
X402800Y240600D03*
X402800Y232600D03*
X402800Y224600D03*
X402800Y216600D03*
X402800Y208600D03*
X402800Y200600D03*
D21*
X416500Y186900D03*
X424500Y186900D03*
X432500Y186900D03*
X440500Y186900D03*
X448500Y186900D03*
X456500Y186900D03*
X464500Y186900D03*
X472500Y186900D03*
D20*
X486200Y200600D03*
X486200Y208600D03*
X486200Y216600D03*
X486200Y224600D03*
X486200Y232600D03*
X486200Y240600D03*
X486200Y248600D03*
X486200Y256600D03*
D21*
X472500Y270300D03*
X464500Y270300D03*
X456500Y270300D03*
X448500Y270300D03*
X440500Y270300D03*
X432500Y270300D03*
X424500Y270300D03*
X416500Y270300D03*
D22*
X247800Y114700D03*
X247800Y139700D03*
X247800Y164700D03*
D23*
X177800Y95700D03*
X177800Y183700D03*
D24*
X355600Y154940D03*
X355600Y251460D03*
D25*
X486200Y200600D02*
X486200Y168700D01*
X457200Y139700D01*
D26*
X457200Y139700D03*
X203200Y215900D03*
D25*
X203200Y241300D01*
X190500Y254000D01*
X165100Y254000D01*
X304800Y165100D02*
X304800Y161900D01*
X304800Y165100D02*
X304800Y190500D01*
X304800Y193700D01*
X190500Y38100D02*
X190500Y25400D01*
X203200Y12700D01*
X330200Y12700D01*
X342900Y25400D01*
X342900Y38100D01*
X419100Y38100D02*
X419100Y25400D01*
X431800Y12700D01*
X558800Y12700D01*
X571500Y25400D01*
X571500Y38100D01*
X499300Y232600D02*
X486200Y232600D01*
X499300Y232600D02*
X546100Y279400D01*
X558800Y279400D01*
X571500Y279400D01*
X571500Y50800D02*
X571500Y38100D01*
X571500Y152400D02*
X584200Y152400D01*
X596900Y76200D02*
X571500Y50800D01*
X596900Y266700D02*
X584200Y279400D01*
X596900Y266700D02*
X596900Y165100D01*
X584200Y152400D01*
X248200Y165100D02*
X247800Y164700D01*
X248200Y165100D02*
X304800Y165100D01*
X571500Y279400D02*
X584200Y279400D01*
X483600Y410600D02*
X465600Y410600D01*
X436600Y381600D01*
X436000Y381000D01*
X406400Y381000D01*
X292100Y355600D02*
X292100Y344170D01*
X317500Y488950D02*
X361950Y488950D01*
X139700Y368300D02*
X139700Y279400D01*
X139700Y368300D02*
X152400Y381000D01*
X266700Y381000D02*
X292100Y355600D01*
X266700Y381000D02*
X152400Y381000D01*
X288900Y317500D02*
X292100Y320700D01*
X292100Y344170D01*
X400598Y226802D02*
X402800Y224600D01*
X374015Y238407D02*
X374015Y286385D01*
X385620Y226802D02*
X400598Y226802D01*
X385620Y226802D02*
X374015Y238407D01*
X292100Y190500D02*
X279400Y203200D01*
X292100Y190500D02*
X304800Y190500D01*
X374015Y286385D02*
X366522Y293878D01*
X344678Y293878D01*
X279400Y228600D01*
X279400Y203200D01*
X342900Y38100D02*
X368300Y38100D01*
X393700Y38100D01*
X419100Y38100D01*
X558800Y355600D02*
X584200Y355600D01*
X558800Y355600D02*
X546100Y342900D01*
X546100Y292100D01*
X558800Y279400D01*
X393700Y457200D02*
X361950Y488950D01*
X393700Y393700D02*
X406400Y381000D01*
X393700Y393700D02*
X393700Y457200D01*
X406400Y381000D02*
X266700Y381000D01*
X596900Y165100D02*
X596900Y76200D01*
X317500Y317500D02*
X288900Y317500D01*
X317500Y317500D02*
X330200Y330200D01*
X346100Y330200D01*
X464500Y186900D02*
X464500Y172400D01*
X444500Y152400D01*
D26*
X444500Y152400D03*
D25*
X472500Y167700D02*
X472500Y186900D01*
X472500Y167700D02*
X444500Y139700D01*
D26*
X444500Y139700D03*
D25*
X266700Y139700D02*
X247800Y139700D01*
X266700Y139700D02*
X279400Y127000D01*
X279400Y101600D02*
X241300Y63500D01*
X241300Y38100D01*
X279400Y101600D02*
X279400Y127000D01*
D26*
X448500Y210141D03*
D25*
X448500Y186900D01*
X314300Y212700D02*
X304800Y212700D01*
X314300Y212700D02*
X330200Y228600D01*
X330200Y241300D01*
X340360Y251460D01*
X355600Y251460D01*
X355600Y215900D01*
X362900Y208600D01*
X402800Y208600D01*
X402800Y200600D02*
X365700Y200600D01*
X355600Y190500D01*
X320700Y142900D02*
X304800Y142900D01*
X332740Y154940D02*
X355600Y154940D01*
X332740Y154940D02*
X320700Y142900D01*
X355600Y154940D02*
X355600Y190500D01*
X355600Y154940D02*
X355600Y146100D01*
X352400Y142900D01*
D26*
X419100Y215900D03*
D25*
X440500Y194500D01*
X440500Y186900D01*
X266700Y344170D02*
X258470Y352400D01*
X165100Y352400D01*
X456500Y186900D02*
X456500Y177100D01*
X444500Y165100D01*
D26*
X444500Y165100D03*
D25*
X238100Y301600D02*
X238100Y317500D01*
X238100Y301600D02*
X228600Y292100D01*
D26*
X228600Y292100D03*
D25*
X444500Y88900D02*
X444500Y38100D01*
X444500Y88900D02*
X406400Y127000D01*
X406400Y177800D01*
D26*
X406400Y177800D03*
X386080Y246380D03*
D25*
X388300Y248600D01*
X402800Y248600D01*
X469900Y76200D02*
X469900Y38100D01*
X416500Y129600D02*
X416500Y186900D01*
X416500Y129600D02*
X469900Y76200D01*
X495300Y63500D02*
X495300Y38100D01*
X424500Y134300D02*
X424500Y186900D01*
X424500Y134300D02*
X495300Y63500D01*
X520700Y50800D02*
X520700Y38100D01*
X520700Y50800D02*
X431800Y139700D01*
X431800Y186200D01*
X432500Y186900D01*
X456500Y278700D02*
X469900Y292100D01*
X456500Y278700D02*
X456500Y270300D01*
X469900Y292100D02*
X508000Y292100D01*
X520700Y279400D01*
D26*
X520700Y279400D03*
X533400Y292100D03*
D25*
X520700Y304800D01*
X469900Y304800D01*
X448500Y283400D01*
X448500Y270300D01*
X477200Y248600D02*
X486200Y248600D01*
X477200Y248600D02*
X469900Y241300D01*
D26*
X469900Y241300D03*
X495300Y152400D03*
D25*
X469900Y127000D01*
D26*
X469900Y127000D03*
D25*
X459800Y256600D02*
X486200Y256600D01*
X459800Y256600D02*
X457200Y254000D01*
D26*
X457200Y254000D03*
X393700Y190500D03*
D25*
X393700Y101600D01*
X381000Y88900D01*
X292100Y63500D02*
X292100Y38100D01*
X317500Y88900D02*
X381000Y88900D01*
X317500Y88900D02*
X292100Y63500D01*
D26*
X495300Y101600D03*
D25*
X533400Y139700D01*
X533400Y190500D01*
D26*
X533400Y190500D03*
X495300Y279400D03*
D25*
X486200Y270300D01*
X472500Y270300D01*
X563800Y127000D02*
X571500Y127000D01*
X571500Y203200D02*
X558800Y203200D01*
X553400Y208600D01*
X486200Y208600D01*
X464500Y208600D01*
X440500Y232600D02*
X402800Y232600D01*
X440500Y232600D02*
X464500Y208600D01*
X190500Y279400D02*
X165100Y279400D01*
X190500Y279400D02*
X215900Y254000D01*
X228600Y114700D02*
X247800Y114700D01*
X228600Y114700D02*
X215900Y102000D01*
X215900Y38100D01*
X548600Y142200D02*
X563800Y127000D01*
X548600Y142200D02*
X548600Y193000D01*
X558800Y203200D01*
X165100Y279400D02*
X165100Y333400D01*
X168300Y330200D01*
X190500Y330200D02*
X203200Y317500D01*
X215900Y317500D01*
X190500Y330200D02*
X168300Y330200D01*
X215900Y254000D02*
X215900Y102000D01*
X257200Y317500D02*
X269900Y317500D01*
X228600Y342900D02*
X215900Y330200D01*
X215900Y317500D01*
X254000Y320700D02*
X257200Y317500D01*
X254000Y320700D02*
X254000Y330200D01*
X241300Y342900D01*
X228600Y342900D01*
X542900Y76200D02*
X546100Y73000D01*
X546100Y38100D01*
X542900Y76200D02*
X543230Y76530D01*
X543900Y77200D02*
X544500Y77800D01*
X219100Y317500D02*
X215900Y317500D01*
X543900Y122260D02*
X543900Y104140D01*
X543900Y122260D02*
X548640Y127000D01*
X563800Y127000D01*
X543900Y104140D02*
X543900Y77200D01*
X543230Y76530D01*
X257200Y241300D02*
X254000Y238100D01*
X257200Y241300D02*
X266700Y241300D01*
X279400Y254000D01*
X279400Y279400D01*
X269900Y288900D01*
X266700Y288900D01*
X254000Y288900D01*
X440500Y283400D02*
X440500Y270300D01*
X314300Y288900D02*
X269900Y288900D01*
X314300Y288900D02*
X330200Y304800D01*
X419100Y304800D01*
X440500Y283400D01*
X254000Y219100D02*
X250800Y215900D01*
X241300Y215900D01*
X228600Y203200D01*
D26*
X228600Y203200D03*
D25*
X522900Y77200D02*
X523900Y76200D01*
X522900Y77200D02*
X522900Y104140D01*
X483600Y351600D02*
X513000Y381000D01*
X584200Y381000D01*
X389400Y330200D02*
X365100Y330200D01*
X462200Y330200D02*
X483600Y351600D01*
X462200Y330200D02*
X423400Y330200D01*
X389400Y330200D01*
M02*
